<svg width="586" height="77" viewBox="0 0 586 77" fill="none" xmlns="http://www.w3.org/2000/svg">
<path d="M570.266 55.6523C570.266 54.332 570.062 53.1471 569.656 52.0977C569.284 51.0143 568.573 50.0326 567.523 49.1523C566.474 48.2383 565.001 47.3411 563.105 46.4609C561.21 45.5807 558.755 44.6667 555.742 43.7188C552.391 42.6354 549.208 41.4167 546.195 40.0625C543.216 38.7083 540.576 37.1341 538.273 35.3398C536.005 33.5117 534.211 31.3958 532.891 28.9922C531.604 26.5885 530.961 23.7956 530.961 20.6133C530.961 17.5326 531.638 14.7396 532.992 12.2344C534.346 9.69531 536.242 7.52865 538.68 5.73438C541.117 3.90625 543.995 2.5013 547.312 1.51953C550.664 0.53776 554.337 0.046875 558.332 0.046875C563.783 0.046875 568.539 1.02865 572.602 2.99219C576.664 4.95573 579.812 7.64714 582.047 11.0664C584.315 14.4857 585.449 18.3958 585.449 22.7969H570.316C570.316 20.6302 569.859 18.7344 568.945 17.1094C568.065 15.4505 566.711 14.1471 564.883 13.1992C563.089 12.2513 560.82 11.7773 558.078 11.7773C555.438 11.7773 553.237 12.1836 551.477 12.9961C549.716 13.7747 548.396 14.8411 547.516 16.1953C546.635 17.5156 546.195 19.0052 546.195 20.6641C546.195 21.9167 546.5 23.0508 547.109 24.0664C547.753 25.082 548.701 26.0299 549.953 26.9102C551.206 27.7904 552.746 28.6198 554.574 29.3984C556.402 30.1771 558.518 30.9388 560.922 31.6836C564.951 32.9023 568.488 34.2734 571.535 35.7969C574.616 37.3203 577.189 39.0299 579.254 40.9258C581.319 42.8216 582.876 44.9714 583.926 47.375C584.975 49.7786 585.5 52.5039 585.5 55.5508C585.5 58.7669 584.874 61.6445 583.621 64.1836C582.368 66.7227 580.557 68.8724 578.188 70.6328C575.818 72.3932 572.991 73.7305 569.707 74.6445C566.423 75.5586 562.75 76.0156 558.688 76.0156C555.031 76.0156 551.426 75.5417 547.871 74.5938C544.316 73.612 541.083 72.1393 538.172 70.1758C535.294 68.2122 532.992 65.707 531.266 62.6602C529.539 59.6133 528.676 56.0078 528.676 51.8438H543.961C543.961 54.1458 544.316 56.0924 545.027 57.6836C545.738 59.2747 546.737 60.5612 548.023 61.543C549.344 62.5247 550.901 63.2357 552.695 63.6758C554.523 64.1159 556.521 64.3359 558.688 64.3359C561.328 64.3359 563.495 63.9635 565.188 63.2188C566.914 62.474 568.184 61.4414 568.996 60.1211C569.842 58.8008 570.266 57.3112 570.266 55.6523Z" fill="white"/>
<path d="M486.832 75H470.734L470.836 63.1172H486.832C490.827 63.1172 494.195 62.2201 496.938 60.4258C499.68 58.5977 501.745 55.9401 503.133 52.4531C504.555 48.9661 505.266 44.7513 505.266 39.8086V36.2031C505.266 32.4115 504.859 29.0768 504.047 26.1992C503.268 23.3216 502.1 20.901 500.543 18.9375C498.986 16.974 497.073 15.5013 494.805 14.5195C492.536 13.5039 489.93 12.9961 486.984 12.9961H470.43V1.0625H486.984C491.927 1.0625 496.447 1.90885 500.543 3.60156C504.673 5.26042 508.245 7.64714 511.258 10.7617C514.271 13.8763 516.59 17.6003 518.215 21.9336C519.874 26.2331 520.703 31.0234 520.703 36.3047V39.8086C520.703 45.056 519.874 49.8464 518.215 54.1797C516.59 58.513 514.271 62.237 511.258 65.3516C508.279 68.4323 504.707 70.819 500.543 72.5117C496.413 74.1706 491.842 75 486.832 75ZM479.367 1.0625V75H464.133V1.0625H479.367Z" fill="white"/>
<path d="M450.879 1.0625V75H435.645L405.938 25.4375V75H390.703V1.0625H405.938L435.695 50.6758V1.0625H450.879Z" fill="white"/>
<path d="M381.816 63.1172V75H342.461V63.1172H381.816ZM347.438 1.0625V75H332.203V1.0625H347.438ZM376.688 31.1758V42.7539H342.461V31.1758H376.688ZM381.766 1.0625V12.9961H342.461V1.0625H381.766Z" fill="white"/>
<path d="M300.77 1.0625V75H285.586V1.0625H300.77ZM323.52 1.0625V12.9961H263.191V1.0625H323.52Z" fill="white"/>
<path d="M255.98 1.0625V75H240.746L211.039 25.4375V75H195.805V1.0625H211.039L240.797 50.6758V1.0625H255.98Z" fill="white"/>
<path d="M184.836 36.3047V39.8086C184.836 45.4284 184.074 50.4727 182.551 54.9414C181.027 59.4102 178.878 63.2188 176.102 66.3672C173.326 69.4818 170.008 71.8685 166.148 73.5273C162.323 75.1862 158.074 76.0156 153.402 76.0156C148.764 76.0156 144.516 75.1862 140.656 73.5273C136.831 71.8685 133.513 69.4818 130.703 66.3672C127.893 63.2188 125.71 59.4102 124.152 54.9414C122.629 50.4727 121.867 45.4284 121.867 39.8086V36.3047C121.867 30.651 122.629 25.6068 124.152 21.1719C125.676 16.7031 127.826 12.8945 130.602 9.74609C133.411 6.59766 136.729 4.19401 140.555 2.53516C144.414 0.876302 148.663 0.046875 153.301 0.046875C157.973 0.046875 162.221 0.876302 166.047 2.53516C169.906 4.19401 173.224 6.59766 176 9.74609C178.81 12.8945 180.977 16.7031 182.5 21.1719C184.057 25.6068 184.836 30.651 184.836 36.3047ZM169.449 39.8086V36.2031C169.449 32.276 169.094 28.8229 168.383 25.8438C167.672 22.8646 166.622 20.3594 165.234 18.3281C163.846 16.2969 162.154 14.7734 160.156 13.7578C158.159 12.7083 155.874 12.1836 153.301 12.1836C150.728 12.1836 148.443 12.7083 146.445 13.7578C144.482 14.7734 142.806 16.2969 141.418 18.3281C140.064 20.3594 139.031 22.8646 138.32 25.8438C137.609 28.8229 137.254 32.276 137.254 36.2031V39.8086C137.254 43.7018 137.609 47.1549 138.32 50.168C139.031 53.1471 140.081 55.6693 141.469 57.7344C142.857 59.7656 144.549 61.306 146.547 62.3555C148.544 63.4049 150.829 63.9297 153.402 63.9297C155.975 63.9297 158.26 63.4049 160.258 62.3555C162.255 61.306 163.931 59.7656 165.285 57.7344C166.639 55.6693 167.672 53.1471 168.383 50.168C169.094 47.1549 169.449 43.7018 169.449 39.8086Z" fill="white"/>
<path d="M57.4766 1.0625H85.0508C90.7044 1.0625 95.5625 1.90885 99.625 3.60156C103.721 5.29427 106.87 7.79948 109.07 11.1172C111.271 14.4349 112.371 18.5143 112.371 23.3555C112.371 27.3164 111.694 30.7188 110.34 33.5625C109.02 36.3724 107.141 38.7253 104.703 40.6211C102.299 42.4831 99.4727 43.9727 96.2227 45.0898L91.3984 47.6289H67.4297L67.3281 35.7461H85.1523C87.8268 35.7461 90.0443 35.2721 91.8047 34.3242C93.5651 33.3763 94.8854 32.056 95.7656 30.3633C96.6797 28.6706 97.1367 26.707 97.1367 24.4727C97.1367 22.1029 96.6966 20.0547 95.8164 18.3281C94.9362 16.6016 93.599 15.2812 91.8047 14.3672C90.0104 13.4531 87.7591 12.9961 85.0508 12.9961H72.7109V75H57.4766V1.0625ZM98.8125 75L81.9531 42.043L98.0508 41.9414L115.113 74.2891V75H98.8125Z" fill="white"/>
<path d="M15.6328 1.0625V75H0.398438V1.0625H15.6328ZM45.0859 32.6484V44.5312H11.4688V32.6484H45.0859ZM48.6406 1.0625V12.9961H11.4688V1.0625H48.6406Z" fill="white"/>
</svg>
