<svg width="639" height="165" viewBox="0 0 639 165" fill="none" xmlns="http://www.w3.org/2000/svg">
<path d="M440.418 59.5625L457.836 1.0625H474.797L449.051 75H437.879L440.418 59.5625ZM424.371 1.0625L441.738 59.5625L444.379 75H433.105L407.512 1.0625H424.371Z" fill="white"/>
<path d="M404.871 63.1172V75H365.516V63.1172H404.871ZM370.492 1.0625V75H355.258V1.0625H370.492ZM399.742 31.1758V42.7539H365.516V31.1758H399.742ZM404.82 1.0625V12.9961H365.516V1.0625H404.82Z" fill="white"/>
<path d="M310.316 75H294.219L294.32 63.1172H310.316C314.311 63.1172 317.68 62.2201 320.422 60.4258C323.164 58.5977 325.229 55.9401 326.617 52.4531C328.039 48.9661 328.75 44.7513 328.75 39.8086V36.2031C328.75 32.4115 328.344 29.0768 327.531 26.1992C326.753 23.3216 325.585 20.901 324.027 18.9375C322.47 16.974 320.557 15.5013 318.289 14.5195C316.021 13.5039 313.414 12.9961 310.469 12.9961H293.914V1.0625H310.469C315.411 1.0625 319.931 1.90885 324.027 3.60156C328.158 5.26042 331.729 7.64714 334.742 10.7617C337.755 13.8763 340.074 17.6003 341.699 21.9336C343.358 26.2331 344.188 31.0234 344.188 36.3047V39.8086C344.188 45.056 343.358 49.8464 341.699 54.1797C340.074 58.513 337.755 62.237 334.742 65.3516C331.763 68.4323 328.191 70.819 324.027 72.5117C319.897 74.1706 315.327 75 310.316 75ZM302.852 1.0625V75H287.617V1.0625H302.852Z" fill="white"/>
<path d="M252.832 63.1172V75H213.477V63.1172H252.832ZM218.453 1.0625V75H203.219V1.0625H218.453ZM247.703 31.1758V42.7539H213.477V31.1758H247.703ZM252.781 1.0625V12.9961H213.477V1.0625H252.781Z" fill="white"/>
<path d="M165.742 42.5508H146.75L146.648 32.0898H162.594C165.404 32.0898 167.706 31.7344 169.5 31.0234C171.294 30.2786 172.632 29.2122 173.512 27.8242C174.426 26.4023 174.883 24.6758 174.883 22.6445C174.883 20.3424 174.443 18.4805 173.562 17.0586C172.716 15.6367 171.379 14.6042 169.551 13.9609C167.757 13.3177 165.438 12.9961 162.594 12.9961H152.031V75H136.797V1.0625H162.594C166.893 1.0625 170.736 1.46875 174.121 2.28125C177.54 3.09375 180.435 4.32943 182.805 5.98828C185.174 7.64714 186.986 9.74609 188.238 12.2852C189.491 14.7904 190.117 17.7695 190.117 21.2227C190.117 24.2695 189.423 27.0794 188.035 29.6523C186.681 32.2253 184.531 34.3242 181.586 35.9492C178.674 37.5742 174.866 38.4714 170.16 38.6406L165.742 42.5508ZM165.082 75H142.586L148.527 63.1172H165.082C167.757 63.1172 169.94 62.694 171.633 61.8477C173.326 60.9674 174.578 59.7826 175.391 58.293C176.203 56.8034 176.609 55.0938 176.609 53.1641C176.609 50.9974 176.237 49.1185 175.492 47.5273C174.781 45.9362 173.63 44.7174 172.039 43.8711C170.448 42.9909 168.349 42.5508 165.742 42.5508H151.066L151.168 32.0898H169.449L172.953 36.2031C177.456 36.1354 181.078 36.931 183.82 38.5898C186.596 40.2148 188.611 42.3307 189.863 44.9375C191.15 47.5443 191.793 50.3372 191.793 53.3164C191.793 58.056 190.76 62.0508 188.695 65.3008C186.63 68.5169 183.6 70.9375 179.605 72.5625C175.645 74.1875 170.803 75 165.082 75Z" fill="white"/>
<path d="M125.828 36.3047V39.8086C125.828 45.4284 125.066 50.4727 123.543 54.9414C122.02 59.4102 119.87 63.2188 117.094 66.3672C114.318 69.4818 111 71.8685 107.141 73.5273C103.315 75.1862 99.0664 76.0156 94.3945 76.0156C89.7565 76.0156 85.5078 75.1862 81.6484 73.5273C77.8229 71.8685 74.5052 69.4818 71.6953 66.3672C68.8854 63.2188 66.7018 59.4102 65.1445 54.9414C63.6211 50.4727 62.8594 45.4284 62.8594 39.8086V36.3047C62.8594 30.651 63.6211 25.6068 65.1445 21.1719C66.668 16.7031 68.8177 12.8945 71.5938 9.74609C74.4036 6.59766 77.7214 4.19401 81.5469 2.53516C85.4062 0.876302 89.6549 0.046875 94.293 0.046875C98.9648 0.046875 103.214 0.876302 107.039 2.53516C110.898 4.19401 114.216 6.59766 116.992 9.74609C119.802 12.8945 121.969 16.7031 123.492 21.1719C125.049 25.6068 125.828 30.651 125.828 36.3047ZM110.441 39.8086V36.2031C110.441 32.276 110.086 28.8229 109.375 25.8438C108.664 22.8646 107.615 20.3594 106.227 18.3281C104.839 16.2969 103.146 14.7734 101.148 13.7578C99.151 12.7083 96.8659 12.1836 94.293 12.1836C91.7201 12.1836 89.4349 12.7083 87.4375 13.7578C85.474 14.7734 83.7982 16.2969 82.4102 18.3281C81.056 20.3594 80.0234 22.8646 79.3125 25.8438C78.6016 28.8229 78.2461 32.276 78.2461 36.2031V39.8086C78.2461 43.7018 78.6016 47.1549 79.3125 50.168C80.0234 53.1471 81.0729 55.6693 82.4609 57.7344C83.849 59.7656 85.5417 61.306 87.5391 62.3555C89.5365 63.4049 91.8216 63.9297 94.3945 63.9297C96.9674 63.9297 99.2526 63.4049 101.25 62.3555C103.247 61.306 104.923 59.7656 106.277 57.7344C107.632 55.6693 108.664 53.1471 109.375 50.168C110.086 47.1549 110.441 43.7018 110.441 39.8086Z" fill="white"/>
<path d="M15.8359 1.0625V75H0.601562V1.0625H15.8359ZM60.1172 1.0625L30.8164 37.5742L13.9062 55.7539L11.1641 41.332L22.5898 25.6914L41.4297 1.0625H60.1172ZM42.8008 75L21.0156 40.8242L32.2891 31.3789L60.8281 75H42.8008Z" fill="white"/>
<path d="M623.266 143.652C623.266 142.332 623.062 141.147 622.656 140.098C622.284 139.014 621.573 138.033 620.523 137.152C619.474 136.238 618.001 135.341 616.105 134.461C614.21 133.581 611.755 132.667 608.742 131.719C605.391 130.635 602.208 129.417 599.195 128.062C596.216 126.708 593.576 125.134 591.273 123.34C589.005 121.512 587.211 119.396 585.891 116.992C584.604 114.589 583.961 111.796 583.961 108.613C583.961 105.533 584.638 102.74 585.992 100.234C587.346 97.6953 589.242 95.5286 591.68 93.7344C594.117 91.9062 596.995 90.5013 600.312 89.5195C603.664 88.5378 607.337 88.0469 611.332 88.0469C616.783 88.0469 621.539 89.0286 625.602 90.9922C629.664 92.9557 632.812 95.6471 635.047 99.0664C637.315 102.486 638.449 106.396 638.449 110.797H623.316C623.316 108.63 622.859 106.734 621.945 105.109C621.065 103.451 619.711 102.147 617.883 101.199C616.089 100.251 613.82 99.7773 611.078 99.7773C608.438 99.7773 606.237 100.184 604.477 100.996C602.716 101.775 601.396 102.841 600.516 104.195C599.635 105.516 599.195 107.005 599.195 108.664C599.195 109.917 599.5 111.051 600.109 112.066C600.753 113.082 601.701 114.03 602.953 114.91C604.206 115.79 605.746 116.62 607.574 117.398C609.402 118.177 611.518 118.939 613.922 119.684C617.951 120.902 621.488 122.273 624.535 123.797C627.616 125.32 630.189 127.03 632.254 128.926C634.319 130.822 635.876 132.971 636.926 135.375C637.975 137.779 638.5 140.504 638.5 143.551C638.5 146.767 637.874 149.645 636.621 152.184C635.368 154.723 633.557 156.872 631.188 158.633C628.818 160.393 625.991 161.73 622.707 162.645C619.423 163.559 615.75 164.016 611.688 164.016C608.031 164.016 604.426 163.542 600.871 162.594C597.316 161.612 594.083 160.139 591.172 158.176C588.294 156.212 585.992 153.707 584.266 150.66C582.539 147.613 581.676 144.008 581.676 139.844H596.961C596.961 142.146 597.316 144.092 598.027 145.684C598.738 147.275 599.737 148.561 601.023 149.543C602.344 150.525 603.901 151.236 605.695 151.676C607.523 152.116 609.521 152.336 611.688 152.336C614.328 152.336 616.495 151.964 618.188 151.219C619.914 150.474 621.184 149.441 621.996 148.121C622.842 146.801 623.266 145.311 623.266 143.652Z" fill="white"/>
<path d="M539.832 163H523.734L523.836 151.117H539.832C543.827 151.117 547.195 150.22 549.938 148.426C552.68 146.598 554.745 143.94 556.133 140.453C557.555 136.966 558.266 132.751 558.266 127.809V124.203C558.266 120.411 557.859 117.077 557.047 114.199C556.268 111.322 555.1 108.901 553.543 106.938C551.986 104.974 550.073 103.501 547.805 102.52C545.536 101.504 542.93 100.996 539.984 100.996H523.43V89.0625H539.984C544.927 89.0625 549.447 89.9089 553.543 91.6016C557.673 93.2604 561.245 95.6471 564.258 98.7617C567.271 101.876 569.59 105.6 571.215 109.934C572.874 114.233 573.703 119.023 573.703 124.305V127.809C573.703 133.056 572.874 137.846 571.215 142.18C569.59 146.513 567.271 150.237 564.258 153.352C561.279 156.432 557.707 158.819 553.543 160.512C549.413 162.171 544.842 163 539.832 163ZM532.367 89.0625V163H517.133V89.0625H532.367Z" fill="white"/>
<path d="M503.879 89.0625V163H488.645L458.938 113.438V163H443.703V89.0625H458.938L488.695 138.676V89.0625H503.879Z" fill="white"/>
<path d="M434.816 151.117V163H395.461V151.117H434.816ZM400.438 89.0625V163H385.203V89.0625H400.438ZM429.688 119.176V130.754H395.461V119.176H429.688ZM434.766 89.0625V100.996H395.461V89.0625H434.766Z" fill="white"/>
<path d="M353.77 89.0625V163H338.586V89.0625H353.77ZM376.52 89.0625V100.996H316.191V89.0625H376.52Z" fill="white"/>
<path d="M308.98 89.0625V163H293.746L264.039 113.438V163H248.805V89.0625H264.039L293.797 138.676V89.0625H308.98Z" fill="white"/>
<path d="M237.836 124.305V127.809C237.836 133.428 237.074 138.473 235.551 142.941C234.027 147.41 231.878 151.219 229.102 154.367C226.326 157.482 223.008 159.868 219.148 161.527C215.323 163.186 211.074 164.016 206.402 164.016C201.764 164.016 197.516 163.186 193.656 161.527C189.831 159.868 186.513 157.482 183.703 154.367C180.893 151.219 178.71 147.41 177.152 142.941C175.629 138.473 174.867 133.428 174.867 127.809V124.305C174.867 118.651 175.629 113.607 177.152 109.172C178.676 104.703 180.826 100.895 183.602 97.7461C186.411 94.5977 189.729 92.194 193.555 90.5352C197.414 88.8763 201.663 88.0469 206.301 88.0469C210.973 88.0469 215.221 88.8763 219.047 90.5352C222.906 92.194 226.224 94.5977 229 97.7461C231.81 100.895 233.977 104.703 235.5 109.172C237.057 113.607 237.836 118.651 237.836 124.305ZM222.449 127.809V124.203C222.449 120.276 222.094 116.823 221.383 113.844C220.672 110.865 219.622 108.359 218.234 106.328C216.846 104.297 215.154 102.773 213.156 101.758C211.159 100.708 208.874 100.184 206.301 100.184C203.728 100.184 201.443 100.708 199.445 101.758C197.482 102.773 195.806 104.297 194.418 106.328C193.064 108.359 192.031 110.865 191.32 113.844C190.609 116.823 190.254 120.276 190.254 124.203V127.809C190.254 131.702 190.609 135.155 191.32 138.168C192.031 141.147 193.081 143.669 194.469 145.734C195.857 147.766 197.549 149.306 199.547 150.355C201.544 151.405 203.829 151.93 206.402 151.93C208.975 151.93 211.26 151.405 213.258 150.355C215.255 149.306 216.931 147.766 218.285 145.734C219.639 143.669 220.672 141.147 221.383 138.168C222.094 135.155 222.449 131.702 222.449 127.809Z" fill="white"/>
<path d="M110.477 89.0625H138.051C143.704 89.0625 148.562 89.9089 152.625 91.6016C156.721 93.2943 159.87 95.7995 162.07 99.1172C164.271 102.435 165.371 106.514 165.371 111.355C165.371 115.316 164.694 118.719 163.34 121.562C162.02 124.372 160.141 126.725 157.703 128.621C155.299 130.483 152.473 131.973 149.223 133.09L144.398 135.629H120.43L120.328 123.746H138.152C140.827 123.746 143.044 123.272 144.805 122.324C146.565 121.376 147.885 120.056 148.766 118.363C149.68 116.671 150.137 114.707 150.137 112.473C150.137 110.103 149.697 108.055 148.816 106.328C147.936 104.602 146.599 103.281 144.805 102.367C143.01 101.453 140.759 100.996 138.051 100.996H125.711V163H110.477V89.0625ZM151.812 163L134.953 130.043L151.051 129.941L168.113 162.289V163H151.812Z" fill="white"/>
<path d="M68.6328 89.0625V163H53.3984V89.0625H68.6328ZM98.0859 120.648V132.531H64.4688V120.648H98.0859ZM101.641 89.0625V100.996H64.4688V89.0625H101.641Z" fill="white"/>
<path d="M0 121H88V133H0V121Z" fill="white"/>
<path d="M108 126.5L87.75 139.057L87.75 113.943L108 126.5Z" fill="white"/>
</svg>
